<svg width="240" height="320" viewBox="0 0 6800 2400" fill="none" xmlns="http://www.w3.org/2000/svg">
          <path fill="#13529E" d="M2807 20l525 1659 7 0 532 -1659 535 0 -783 2360 -585 0 -767 -2360 536 0zm2320 0l0 978 922 -978 648 0 -922 932 1011 1428 -651 0 -711 -1061 -297 301 0 760 -519 0 0 -2360 519 0 0 0z"/>
          <path fill="#000000" d="M1225 517c-14,0 -26,6 -33,16 -3,4 -163,343 -321,681 -149,318 -296,634 -298,637 -4,6 -5,13 -5,20 0,23 18,41 41,41 13,0 26,-6 33,-17 2,-3 162,-342 321,-681 148,-317 296,-633 298,-636 3,-6 5,-13 5,-20 0,-23 -18,-41 -41,-41zm-762 204c-10,1 -21,6 -28,14 0,0 -405,445 -412,454 -6,7 -9,16 -9,25 0,10 3,18 8,25 7,10 413,454 413,454 14,19 44,22 61,6 17,-15 17,-45 0,-61l-386 -424 386 -423c11,-12 14,-31 7,-46 -7,-15 -24,-25 -40,-24zm908 0c-16,-1 -33,9 -40,24 -7,15 -4,34 7,46l386 423 -386 424c-17,16 -16,46 0,61 17,16 47,13 61,-6 0,0 406,-444 413,-454 5,-7 8,-15 8,-25 0,-9 -3,-18 -8,-25 -8,-9 -413,-454 -413,-454 -7,-8 -17,-13 -28,-14z"/>
</svg>
